<svg xmlns="http://www.w3.org/2000/svg" version="1.1" xmlns:xlink="http://www.w3.org/1999/xlink" xmlns:svgjs="http://svgjs.dev/svgjs" viewBox="0 0 800 800"><defs><linearGradient x1="50%" y1="0%" x2="50%" y2="100%" id="ffflurry-grad" gradientTransform="rotate(270)"><stop stop-color="hsl(238, 82%, 13%)" stop-opacity="1" offset="0%"></stop><stop stop-color="hsl(1.4, 100%, 67%)" stop-opacity="1" offset="45%"></stop><stop stop-color="hsl(167, 52%, 78%)" stop-opacity="1" offset="100%"></stop></linearGradient></defs><rect width="100%" height="100%" fill="hsl(238, 82%, 13%)"></rect><g fill="url(#ffflurry-grad)"><rect width="546" height="3" x="459" y="427.5" rx="1.5" transform="rotate(45, 732, 429)" opacity="0.16"></rect><rect width="615" height="3" x="-26.5" y="400.5" rx="1.5" transform="rotate(45, 281, 402)" opacity="0.37"></rect><rect width="520" height="3" x="338" y="721.5" rx="1.5" transform="rotate(45, 598, 723)" opacity="0.71"></rect><rect width="86" height="3" x="346" y="256.5" rx="1.5" transform="rotate(45, 389, 258)" opacity="0.48"></rect><rect width="70" height="3" x="490" y="154.5" rx="1.5" transform="rotate(45, 525, 156)" opacity="0.95"></rect><rect width="540" height="3" x="92" y="347.5" rx="1.5" transform="rotate(45, 362, 349)" opacity="0.36"></rect><rect width="210" height="3" x="602" y="245.5" rx="1.5" transform="rotate(45, 707, 247)" opacity="0.23"></rect><rect width="101" height="3" x="353.5" y="755.5" rx="1.5" transform="rotate(45, 404, 757)" opacity="0.96"></rect><rect width="236" height="3" x="452" y="31.5" rx="1.5" transform="rotate(45, 570, 33)" opacity="0.72"></rect><rect width="595" height="3" x="219.5" y="652.5" rx="1.5" transform="rotate(45, 517, 654)" opacity="0.63"></rect><rect width="366" height="3" x="-163" y="585.5" rx="1.5" transform="rotate(45, 20, 587)" opacity="0.41"></rect><rect width="323" height="3" x="291.5" y="144.5" rx="1.5" transform="rotate(45, 453, 146)" opacity="0.54"></rect><rect width="604" height="3" x="-139" y="139.5" rx="1.5" transform="rotate(45, 163, 141)" opacity="0.78"></rect><rect width="194" height="3" x="93" y="45.5" rx="1.5" transform="rotate(45, 190, 47)" opacity="0.27"></rect><rect width="290" height="3" x="87" y="322.5" rx="1.5" transform="rotate(45, 232, 324)" opacity="0.18"></rect><rect width="410" height="3" x="99" y="555.5" rx="1.5" transform="rotate(45, 304, 557)" opacity="1.00"></rect><rect width="57" height="3" x="16.5" y="219.5" rx="1.5" transform="rotate(45, 45, 221)" opacity="0.72"></rect><rect width="343" height="3" x="47.5" y="558.5" rx="1.5" transform="rotate(45, 219, 560)" opacity="0.10"></rect><rect width="516" height="3" x="-150" y="715.5" rx="1.5" transform="rotate(45, 108, 717)" opacity="0.68"></rect><rect width="139" height="3" x="433.5" y="83.5" rx="1.5" transform="rotate(45, 503, 85)" opacity="0.34"></rect><rect width="525" height="3" x="-227.5" y="704.5" rx="1.5" transform="rotate(45, 35, 706)" opacity="0.77"></rect><rect width="621" height="3" x="-214.5" y="576.5" rx="1.5" transform="rotate(45, 96, 578)" opacity="0.89"></rect><rect width="564" height="3" x="475" y="745.5" rx="1.5" transform="rotate(45, 757, 747)" opacity="0.67"></rect><rect width="553" height="3" x="332.5" y="97.5" rx="1.5" transform="rotate(45, 609, 99)" opacity="0.46"></rect><rect width="477" height="3" x="35.5" y="694.5" rx="1.5" transform="rotate(45, 274, 696)" opacity="0.85"></rect><rect width="59" height="3" x="575.5" y="322.5" rx="1.5" transform="rotate(45, 605, 324)" opacity="0.27"></rect><rect width="489" height="3" x="76.5" y="627.5" rx="1.5" transform="rotate(45, 321, 629)" opacity="0.16"></rect><rect width="191" height="3" x="364.5" y="208.5" rx="1.5" transform="rotate(45, 460, 210)" opacity="0.62"></rect><rect width="530" height="3" x="-72" y="219.5" rx="1.5" transform="rotate(45, 193, 221)" opacity="0.73"></rect><rect width="335" height="3" x="342.5" y="755.5" rx="1.5" transform="rotate(45, 510, 757)" opacity="0.97"></rect><rect width="56" height="3" x="281" y="763.5" rx="1.5" transform="rotate(45, 309, 765)" opacity="0.33"></rect><rect width="115" height="3" x="395.5" y="392.5" rx="1.5" transform="rotate(45, 453, 394)" opacity="0.93"></rect><rect width="464" height="3" x="235" y="296.5" rx="1.5" transform="rotate(45, 467, 298)" opacity="0.42"></rect><rect width="154" height="3" x="22" y="371.5" rx="1.5" transform="rotate(45, 99, 373)" opacity="0.92"></rect><rect width="353" height="3" x="594.5" y="624.5" rx="1.5" transform="rotate(45, 771, 626)" opacity="0.62"></rect><rect width="666" height="3" x="-148" y="628.5" rx="1.5" transform="rotate(45, 185, 630)" opacity="0.55"></rect><rect width="396" height="3" x="-91" y="261.5" rx="1.5" transform="rotate(45, 107, 263)" opacity="0.82"></rect><rect width="452" height="3" x="472" y="643.5" rx="1.5" transform="rotate(45, 698, 645)" opacity="0.21"></rect><rect width="281" height="3" x="255.5" y="547.5" rx="1.5" transform="rotate(45, 396, 549)" opacity="0.74"></rect><rect width="483" height="3" x="47.5" y="204.5" rx="1.5" transform="rotate(45, 289, 206)" opacity="0.91"></rect><rect width="231" height="3" x="333.5" y="602.5" rx="1.5" transform="rotate(45, 449, 604)" opacity="0.25"></rect><rect width="149" height="3" x="-36.5" y="525.5" rx="1.5" transform="rotate(45, 38, 527)" opacity="0.52"></rect><rect width="411" height="3" x="-16.5" y="754.5" rx="1.5" transform="rotate(45, 189, 756)" opacity="0.08"></rect><rect width="156" height="3" x="63" y="494.5" rx="1.5" transform="rotate(45, 141, 496)" opacity="0.25"></rect><rect width="303" height="3" x="270.5" y="97.5" rx="1.5" transform="rotate(45, 422, 99)" opacity="0.81"></rect><rect width="46" height="3" x="182" y="452.5" rx="1.5" transform="rotate(45, 205, 454)" opacity="0.97"></rect><rect width="310" height="3" x="25" y="287.5" rx="1.5" transform="rotate(45, 180, 289)" opacity="0.98"></rect><rect width="595" height="3" x="300.5" y="488.5" rx="1.5" transform="rotate(45, 598, 490)" opacity="0.71"></rect><rect width="100" height="3" x="322" y="167.5" rx="1.5" transform="rotate(45, 372, 169)" opacity="0.56"></rect><rect width="348" height="3" x="560" y="325.5" rx="1.5" transform="rotate(45, 734, 327)" opacity="0.51"></rect><rect width="550" height="3" x="296" y="396.5" rx="1.5" transform="rotate(45, 571, 398)" opacity="0.18"></rect><rect width="600" height="3" x="415" y="526.5" rx="1.5" transform="rotate(45, 715, 528)" opacity="0.21"></rect><rect width="57" height="3" x="258.5" y="130.5" rx="1.5" transform="rotate(45, 287, 132)" opacity="0.67"></rect><rect width="422" height="3" x="359" y="199.5" rx="1.5" transform="rotate(45, 570, 201)" opacity="0.28"></rect><rect width="322" height="3" x="370" y="277.5" rx="1.5" transform="rotate(45, 531, 279)" opacity="0.47"></rect><rect width="87" height="3" x="320.5" y="26.5" rx="1.5" transform="rotate(45, 364, 28)" opacity="0.55"></rect><rect width="200" height="3" x="-56" y="100.5" rx="1.5" transform="rotate(45, 44, 102)" opacity="0.51"></rect><rect width="372" height="3" x="-95" y="35.5" rx="1.5" transform="rotate(45, 91, 37)" opacity="0.10"></rect><rect width="115" height="3" x="613.5" y="750.5" rx="1.5" transform="rotate(45, 671, 752)" opacity="0.09"></rect><rect width="88" height="3" x="227" y="72.5" rx="1.5" transform="rotate(45, 271, 74)" opacity="0.75"></rect><rect width="109" height="3" x="242.5" y="287.5" rx="1.5" transform="rotate(45, 297, 289)" opacity="0.37"></rect><rect width="225" height="3" x="383.5" y="509.5" rx="1.5" transform="rotate(45, 496, 511)" opacity="0.28"></rect><rect width="180" height="3" x="362" y="28.5" rx="1.5" transform="rotate(45, 452, 30)" opacity="0.22"></rect><rect width="171" height="3" x="57.5" y="327.5" rx="1.5" transform="rotate(45, 143, 329)" opacity="0.21"></rect><rect width="63" height="3" x="2.5" y="354.5" rx="1.5" transform="rotate(45, 34, 356)" opacity="0.94"></rect><rect width="405" height="3" x="205.5" y="678.5" rx="1.5" transform="rotate(45, 408, 680)" opacity="0.46"></rect><rect width="297" height="3" x="-96.5" y="455.5" rx="1.5" transform="rotate(45, 52, 457)" opacity="1.00"></rect><rect width="686" height="3" x="28" y="461.5" rx="1.5" transform="rotate(45, 371, 463)" opacity="0.91"></rect><rect width="580" height="3" x="373" y="153.5" rx="1.5" transform="rotate(45, 663, 155)" opacity="0.91"></rect><rect width="99" height="3" x="674.5" y="49.5" rx="1.5" transform="rotate(45, 724, 51)" opacity="0.50"></rect><rect width="77" height="3" x="589.5" y="246.5" rx="1.5" transform="rotate(45, 628, 248)" opacity="0.83"></rect><rect width="478" height="3" x="368" y="601.5" rx="1.5" transform="rotate(45, 607, 603)" opacity="0.07"></rect><rect width="475" height="3" x="522.5" y="169.5" rx="1.5" transform="rotate(45, 760, 171)" opacity="0.48"></rect><rect width="470" height="3" x="37" y="489.5" rx="1.5" transform="rotate(45, 272, 491)" opacity="0.23"></rect><rect width="69" height="3" x="250.5" y="20.5" rx="1.5" transform="rotate(45, 285, 22)" opacity="0.32"></rect><rect width="386" height="3" x="172" y="83.5" rx="1.5" transform="rotate(45, 365, 85)" opacity="0.20"></rect><rect width="99" height="3" x="120.5" y="393.5" rx="1.5" transform="rotate(45, 170, 395)" opacity="0.89"></rect></g></svg>